<svg width="20" height="20" viewBox="0 0 20 20" fill="none" xmlns="http://www.w3.org/2000/svg">
<path d="M19.0686 0.959093C19.6949 1.59558 19.8822 2.48125 19.9532 3.1246C20.0324 3.84267 20.0052 4.66646 19.9154 5.51467C19.7348 7.22033 19.2756 9.25359 18.661 11.2107C18.0471 13.1652 17.2527 15.1246 16.3667 16.6634C15.9253 17.4301 15.4311 18.1454 14.8866 18.7095C14.3663 19.2486 13.6487 19.8078 12.7444 19.9602L12.7395 19.9611C12.5693 19.9892 12.4034 19.9955 12.3449 19.9977L12.3337 19.9981C11.7433 20.0221 11.2334 19.8139 10.8853 19.6269C10.5132 19.427 10.164 19.1631 9.85255 18.8865C9.22831 18.3319 8.61991 17.604 8.12485 16.8449C7.85359 16.4289 7.59659 15.9733 7.38653 15.5018C7.07493 14.8023 7.26516 14.0075 7.73645 13.4033L10.5959 10.034C10.7423 9.86153 10.7317 9.60598 10.5714 9.44621C10.4112 9.28645 10.1549 9.27582 9.98186 9.42176L6.60247 12.2727C5.95834 12.7722 5.10646 12.9658 4.36977 12.6158C3.89871 12.3921 3.44455 12.1224 3.02967 11.8371C2.24626 11.2983 1.49562 10.6299 0.945151 9.93316C0.670501 9.58553 0.411029 9.18734 0.234301 8.75657C0.0635298 8.34031 -0.0839354 7.76031 0.0553249 7.12588L0.0555554 7.12484C0.245859 6.25851 0.816176 5.57254 1.35671 5.07292C1.92593 4.54679 2.64163 4.06378 3.41008 3.62848C4.95198 2.75506 6.90454 1.96304 8.85156 1.3477C10.7996 0.732051 12.8213 0.268267 14.5169 0.085627C15.3598 -0.00516954 16.1813 -0.0332161 16.8988 0.0480141C17.5431 0.120956 18.4344 0.314623 19.0686 0.959093Z" fill="white"/>
</svg>
