<svg width="24" height="24" viewBox="0 0 24 24" fill="none" xmlns="http://www.w3.org/2000/svg">
<g opacity="0.5">
<path opacity="0.4" d="M20.41 6.95994V9.79994L7.40003 19.3399L4.77003 17.3699C4.12003 16.8799 3.59003 15.8299 3.59003 15.0199V6.95994C3.59003 5.83994 4.45003 4.59994 5.50003 4.20994L10.97 2.15994C11.54 1.94994 12.46 1.94994 13.03 2.15994L18.5 4.20994C19.55 4.59994 20.41 5.83994 20.41 6.95994Z" fill="#182E4E"/>
<path d="M20.41 11.1699V15.0199C20.41 15.8299 19.88 16.8799 19.23 17.3699L13.76 21.4599C13.28 21.8199 12.64 21.9999 12 21.9999C11.36 21.9999 10.72 21.8199 10.24 21.4599L8.32001 20.0299L20.41 11.1699Z" fill="#182E4E"/>
</g>
</svg>
