<svg width="23" height="23" viewBox="0 0 23 23" fill="none" xmlns="http://www.w3.org/2000/svg">
<path opacity="0.1" d="M22.6777 9.44364C23.315 8.82153 22.9522 7.73542 22.0703 7.62494L16.1628 6.88493C15.7924 6.83853 15.4736 6.59981 15.3237 6.25651L12.869 0.636602C12.4983 -0.212166 11.2993 -0.212211 10.9285 0.636528L8.47331 6.25659C8.32336 6.59984 8.00461 6.83853 7.63423 6.88493L1.72735 7.62492C0.845453 7.7354 0.482735 8.82151 1.11997 9.44362L5.55742 13.7758C5.81238 14.0247 5.926 14.3854 5.85996 14.7363L4.69263 20.9378C4.52356 21.836 5.48663 22.5161 6.2711 22.0524L11.3615 19.0438C11.6931 18.8477 12.1046 18.8477 12.4363 19.0438L17.5266 22.0524C18.3111 22.5161 19.2742 21.836 19.1051 20.9378L17.9378 14.7363C17.8717 14.3854 17.9853 14.0247 18.2403 13.7758L22.6777 9.44364Z" fill="#001521"/>
</svg>
