<svg width="30" height="30" viewBox="0 0 30 30" fill="none" xmlns="http://www.w3.org/2000/svg">
<g clip-path="url(#clip0_149_320)">
<circle cx="15" cy="15" r="33" fill="white"/>
<path fill-rule="evenodd" clip-rule="evenodd" d="M15 0C23.2843 0 30 6.71572 30 15C30 23.2843 23.2843 30 15 30C6.71572 30 0 23.2843 0 15C0 6.71572 6.71572 0 15 0ZM11.5465 13.219C11.2356 13.2192 10.9316 13.3116 10.6731 13.4845C10.4146 13.6573 10.2132 13.903 10.0943 14.1903C9.9754 14.4777 9.94437 14.7938 10.0051 15.0988C10.0659 15.4038 10.2157 15.6839 10.4357 15.9038C10.6556 16.1236 10.9358 16.2733 11.2408 16.334C11.5458 16.3946 11.862 16.3634 12.1493 16.2444C12.4366 16.1253 12.6821 15.9238 12.8549 15.6652C13.0277 15.4067 13.1199 15.1027 13.1199 14.7917C13.1196 14.3746 12.9537 13.9746 12.6587 13.6797C12.3637 13.3849 11.9637 13.2192 11.5465 13.219ZM11.5465 15.7796C11.742 15.7797 11.9331 15.7219 12.0957 15.6133C12.2582 15.5048 12.385 15.3506 12.4598 15.17C12.5347 14.9895 12.5543 14.7908 12.5163 14.5991C12.4782 14.4073 12.3841 14.2312 12.2459 14.093C12.1078 13.9548 11.9317 13.8606 11.74 13.8225C11.5483 13.7843 11.3496 13.8039 11.169 13.8787C10.9884 13.9535 10.8341 14.0801 10.7255 14.2427C10.617 14.4052 10.559 14.5962 10.5591 14.7917C10.5593 15.0536 10.6634 15.3047 10.8485 15.4899C11.0336 15.6751 11.2847 15.7793 11.5465 15.7796ZM18.4535 13.219C18.1424 13.2189 17.8383 13.3109 17.5796 13.4836C17.3209 13.6563 17.1192 13.9018 17 14.1892C16.8808 14.4765 16.8496 14.7927 16.9101 15.0978C16.9707 15.4029 17.1204 15.6832 17.3403 15.9032C17.5601 16.1232 17.8403 16.2731 18.1454 16.3338C18.4505 16.3946 18.7667 16.3635 19.0541 16.2445C19.3415 16.1256 19.5871 15.924 19.76 15.6654C19.9328 15.4068 20.0251 15.1028 20.0251 14.7917C20.0244 14.375 19.8587 13.9755 19.5641 13.6808C19.2695 13.386 18.8702 13.22 18.4535 13.219ZM18.4535 15.7796C18.6489 15.7797 18.84 15.7219 19.0026 15.6134C19.1652 15.5049 19.2919 15.3506 19.3668 15.17C19.4417 14.9895 19.4613 14.7908 19.4232 14.5991C19.3852 14.4074 19.2911 14.2313 19.1529 14.093C19.0148 13.9548 18.8387 13.8606 18.647 13.8225C18.4553 13.7843 18.2566 13.8039 18.076 13.8787C17.8954 13.9535 17.7411 14.0801 17.6325 14.2426C17.5239 14.4052 17.466 14.5962 17.466 14.7917C17.4663 15.0536 17.5703 15.3046 17.7555 15.4898C17.9406 15.675 18.1916 15.7792 18.4535 15.7796ZM17.2213 18.252C17.2015 18.219 17.1754 18.1904 17.1445 18.1676C17.1135 18.1448 17.0784 18.1283 17.0411 18.1191C17.0038 18.1099 16.9651 18.1082 16.9271 18.114C16.8891 18.1198 16.8527 18.133 16.8198 18.1529C16.2711 18.4857 15.6417 18.6617 15 18.6617C14.3583 18.6617 13.7289 18.4857 13.1802 18.1529C13.1139 18.1127 13.0343 18.1005 12.9589 18.1189C12.8836 18.1374 12.8187 18.185 12.7785 18.2514C12.7383 18.3177 12.726 18.3973 12.7445 18.4726C12.763 18.548 12.8106 18.6129 12.8769 18.6531C13.5171 19.0411 14.2514 19.2463 15 19.2463C15.7486 19.2463 16.4829 19.0411 17.1231 18.6531C17.1559 18.6333 17.1846 18.6071 17.2073 18.5762C17.23 18.5453 17.2464 18.5102 17.2556 18.4729C17.2647 18.4357 17.2664 18.397 17.2605 18.359C17.2546 18.3211 17.2413 18.2847 17.2213 18.252ZM6.62109 19.4519H7.14674V12.4876H6.62109C6.51795 12.4875 6.41897 12.5283 6.34593 12.6011C6.2729 12.674 6.23178 12.7728 6.23162 12.876V19.0635C6.23178 19.1666 6.27289 19.2655 6.34593 19.3383C6.41897 19.4112 6.51794 19.452 6.62109 19.4519ZM22.2688 20.543V11.3965C22.2686 11.207 22.1931 11.0253 22.059 10.8914C21.9249 10.7575 21.7432 10.6823 21.5537 10.6822H8.44629C8.25679 10.6823 8.07505 10.7575 7.94097 10.8914C7.80689 11.0253 7.73143 11.207 7.73115 11.3965V20.543C7.73143 20.7325 7.80689 20.9141 7.94097 21.048C8.07505 21.1819 8.25679 21.2572 8.44629 21.2572H10.2885C10.3269 21.2572 10.3648 21.2647 10.4003 21.2794C10.4357 21.2941 10.4678 21.3157 10.4949 21.3428C10.522 21.37 10.5434 21.4022 10.5579 21.4377C10.5725 21.4732 10.5799 21.5112 10.5797 21.5495V23.7891L14.8981 21.2964C14.9427 21.2708 14.9932 21.2573 15.0446 21.2573H21.5537C21.7432 21.2573 21.9249 21.1821 22.059 21.0482C22.1931 20.9142 22.2686 20.7326 22.2688 20.5431V20.543ZM23.7681 19.0634V12.876C23.768 12.7729 23.7269 12.674 23.6539 12.6012C23.5809 12.5284 23.482 12.4875 23.3789 12.4876H22.8533V19.4519H23.3789C23.482 19.452 23.581 19.4112 23.654 19.3384C23.7271 19.2655 23.7682 19.1667 23.7684 19.0635L23.7681 19.0634ZM15.293 8.79926C15.6071 8.72726 15.8837 8.54211 16.0701 8.27913C16.2564 8.01616 16.3394 7.69378 16.3031 7.37354C16.2669 7.05329 16.114 6.75759 15.8737 6.54289C15.6333 6.32819 15.3223 6.20951 15 6.20951C14.6777 6.20951 14.3667 6.32819 14.1263 6.54289C13.886 6.75759 13.7331 7.05329 13.6969 7.37354C13.6606 7.69378 13.7436 8.01616 13.9299 8.27913C14.1163 8.54211 14.3929 8.72726 14.707 8.79926V10.0976H15.293V8.79926Z" fill="#583EEC"/>
</g>
<defs>
<clipPath id="clip0_149_320">
<rect width="30" height="30" rx="15" fill="white"/>
</clipPath>
</defs>
</svg>
