<svg width="23" height="23" viewBox="0 0 23 23" fill="none" xmlns="http://www.w3.org/2000/svg">
<g clip-path="url(#clip0_149_193)">
<path d="M5.09729 13.8991L4.29669 16.8879L1.37052 16.9498C0.496027 15.3278 0 13.472 0 11.4999C0 9.59295 0.463773 7.79463 1.28584 6.21118H1.28647L3.89158 6.68879L5.03278 9.27827C4.79393 9.9746 4.66374 10.7221 4.66374 11.4999C4.66383 12.3441 4.81675 13.1529 5.09729 13.8991Z" fill="#FBBB00"/>
<path d="M22.7991 9.35156C22.9311 10.0472 23 10.7657 23 11.4999C23 12.3232 22.9134 13.1263 22.7485 13.901C22.1887 16.5372 20.7259 18.8391 18.6995 20.468L18.6989 20.4674L15.4176 20.3L14.9532 17.4009C16.2978 16.6124 17.3486 15.3783 17.9022 13.901H11.7528V9.35156H17.9919H22.7991Z" fill="#518EF8"/>
<path d="M18.6989 20.4674L18.6995 20.4681C16.7287 22.0521 14.2253 22.9999 11.5 22.9999C7.12054 22.9999 3.31292 20.5521 1.37054 16.9498L5.09731 13.8992C6.06847 16.4911 8.56878 18.3361 11.5 18.3361C12.7599 18.3361 13.9403 17.9956 14.9532 17.401L18.6989 20.4674Z" fill="#28B446"/>
<path d="M18.8404 2.64752L15.1149 5.69753C14.0666 5.0423 12.8275 4.66379 11.5 4.66379C8.50239 4.66379 5.95532 6.5935 5.03281 9.27834L1.28646 6.21126H1.28583C3.19977 2.52115 7.05541 0 11.5 0C14.2903 0 16.8487 0.993941 18.8404 2.64752Z" fill="#F14336"/>
</g>
<defs>
<clipPath id="clip0_149_193">
<rect width="23" height="23" fill="white"/>
</clipPath>
</defs>
</svg>
