<svg width="375" height="290" viewBox="0 0 375 290" fill="none" xmlns="http://www.w3.org/2000/svg">
<path fill-rule="evenodd" clip-rule="evenodd" d="M375 14C375 6.26801 368.732 0 361 0H14C6.26801 0 0 6.26801 0 14V159C0 181.091 17.9086 199 40 199H120.648C125.399 199 129 194.752 129 190C129 157.415 155.415 131 188 131C220.585 131 247 157.415 247 190C247 194.752 250.601 199 255.352 199H335C357.091 199 375 181.091 375 159V14Z" fill="url(#paint0_linear_21_110)"/>
<g opacity="0.3">
<g filter="url(#filter0_d_21_110)">
<circle cx="135" cy="135" r="135" transform="matrix(0.923144 -0.384455 -0.384455 -0.923144 139.964 91.208)" fill="url(#paint1_linear_21_110)" shape-rendering="crispEdges"/>
<circle cx="135" cy="135" r="134.5" transform="matrix(0.923144 -0.384455 -0.384455 -0.923144 139.964 91.208)" stroke="url(#paint2_linear_21_110)" shape-rendering="crispEdges"/>
</g>
<g filter="url(#filter1_d_21_110)">
<circle cx="135" cy="135" r="135" transform="matrix(0.923144 -0.384455 -0.384455 -0.923144 -55.1971 132.405)" fill="url(#paint3_linear_21_110)" shape-rendering="crispEdges"/>
<circle cx="135" cy="135" r="134.5" transform="matrix(0.923144 -0.384455 -0.384455 -0.923144 -55.1971 132.405)" stroke="url(#paint4_linear_21_110)" shape-rendering="crispEdges"/>
</g>
</g>
<defs>
<filter id="filter0_d_21_110" x="-121.348" y="-419.353" width="668.07" height="668.07" filterUnits="userSpaceOnUse" color-interpolation-filters="sRGB">
<feFlood flood-opacity="0" result="BackgroundImageFix"/>
<feColorMatrix in="SourceAlpha" type="matrix" values="0 0 0 0 0 0 0 0 0 0 0 0 0 0 0 0 0 0 127 0" result="hardAlpha"/>
<feOffset/>
<feGaussianBlur stdDeviation="99.5"/>
<feComposite in2="hardAlpha" operator="out"/>
<feColorMatrix type="matrix" values="0 0 0 0 0 0 0 0 0 0 0 0 0 0 0 0 0 0 0.45 0"/>
<feBlend mode="normal" in2="BackgroundImageFix" result="effect1_dropShadow_21_110"/>
<feBlend mode="normal" in="SourceGraphic" in2="effect1_dropShadow_21_110" result="shape"/>
</filter>
<filter id="filter1_d_21_110" x="-316.509" y="-378.156" width="668.07" height="668.07" filterUnits="userSpaceOnUse" color-interpolation-filters="sRGB">
<feFlood flood-opacity="0" result="BackgroundImageFix"/>
<feColorMatrix in="SourceAlpha" type="matrix" values="0 0 0 0 0 0 0 0 0 0 0 0 0 0 0 0 0 0 127 0" result="hardAlpha"/>
<feOffset/>
<feGaussianBlur stdDeviation="99.5"/>
<feComposite in2="hardAlpha" operator="out"/>
<feColorMatrix type="matrix" values="0 0 0 0 0 0 0 0 0 0 0 0 0 0 0 0 0 0 0.45 0"/>
<feBlend mode="normal" in2="BackgroundImageFix" result="effect1_dropShadow_21_110"/>
<feBlend mode="normal" in="SourceGraphic" in2="effect1_dropShadow_21_110" result="shape"/>
</filter>
<linearGradient id="paint0_linear_21_110" x1="4" y1="4.975" x2="172.205" y2="305.168" gradientUnits="userSpaceOnUse">
<stop stop-color="#7C3CE1"/>
<stop offset="1" stop-color="#1614DB"/>
</linearGradient>
<linearGradient id="paint1_linear_21_110" x1="135" y1="0" x2="135" y2="270" gradientUnits="userSpaceOnUse">
<stop stop-color="white" stop-opacity="0.1"/>
<stop offset="0.447917" stop-color="white" stop-opacity="0"/>
</linearGradient>
<linearGradient id="paint2_linear_21_110" x1="135" y1="0" x2="135" y2="270" gradientUnits="userSpaceOnUse">
<stop stop-color="white" stop-opacity="0.19"/>
<stop offset="0.71875" stop-color="white" stop-opacity="0"/>
</linearGradient>
<linearGradient id="paint3_linear_21_110" x1="135" y1="0" x2="135" y2="270" gradientUnits="userSpaceOnUse">
<stop stop-color="white" stop-opacity="0.1"/>
<stop offset="0.447917" stop-color="white" stop-opacity="0"/>
</linearGradient>
<linearGradient id="paint4_linear_21_110" x1="135" y1="0" x2="135" y2="270" gradientUnits="userSpaceOnUse">
<stop stop-color="white" stop-opacity="0.19"/>
<stop offset="0.71875" stop-color="white" stop-opacity="0"/>
</linearGradient>
</defs>
</svg>
