<svg width="20" height="19" viewBox="0 0 20 19" fill="none" xmlns="http://www.w3.org/2000/svg">
<path d="M1.54152 12.4983C1.37474 10.4968 1.29134 9.49612 1.56347 8.70253C1.92631 7.6444 2.71565 6.78655 3.73999 6.33709C4.50824 6 5.51243 6 7.5208 6H12.4792C14.4876 6 15.4918 6 16.26 6.33709C17.2844 6.78655 18.0737 7.6444 18.4365 8.70253C18.7087 9.49612 18.6253 10.4968 18.4585 12.4983V12.4983C18.3149 14.2208 18.2432 15.0821 17.9124 15.758C17.4714 16.6593 16.7078 17.3619 15.7731 17.7265C15.072 18 14.2077 18 12.4792 18H7.5208C5.79227 18 4.92801 18 4.22694 17.7265C3.29217 17.3619 2.52857 16.6593 2.08758 15.758C1.75684 15.0821 1.68507 14.2208 1.54152 12.4983V12.4983Z" stroke="url(#paint0_linear_149_162)" stroke-width="1.5"/>
<path d="M5.5 5.5C5.5 5.5 5.51388 1 10 1C14.4861 1 14.4875 5.5 14.4875 5.5" stroke="url(#paint1_linear_149_162)" stroke-width="1.5" stroke-linecap="round" stroke-linejoin="round"/>
<path d="M10 14L10 12" stroke="url(#paint2_linear_149_162)" stroke-width="1.5" stroke-linecap="round"/>
<defs>
<linearGradient id="paint0_linear_149_162" x1="1.192" y1="6.3" x2="12.3876" y2="22.2046" gradientUnits="userSpaceOnUse">
<stop stop-color="#874EDC"/>
<stop offset="1" stop-color="#3833F9"/>
</linearGradient>
<linearGradient id="paint1_linear_149_162" x1="5.59587" y1="1.1125" x2="9.28133" y2="8.08364" gradientUnits="userSpaceOnUse">
<stop stop-color="#874EDC"/>
<stop offset="1" stop-color="#3833F9"/>
</linearGradient>
<linearGradient id="paint2_linear_149_162" x1="10.025" y1="13.9787" x2="11.5751" y2="13.1603" gradientUnits="userSpaceOnUse">
<stop stop-color="#874EDC"/>
<stop offset="1" stop-color="#3833F9"/>
</linearGradient>
</defs>
</svg>
