<svg width="137" height="38" viewBox="0 0 137 38" fill="none" xmlns="http://www.w3.org/2000/svg">
<path d="M53.0913 29H48.6424L55.4212 9.36364H60.7713L67.5405 29H63.0916L58.1729 13.8509H58.0195L53.0913 29ZM52.8132 21.2816H63.3217V24.5224H52.8132V21.2816ZM74.0556 9.36364V29H69.9039V9.36364H74.0556ZM87.1049 29H82.6561L89.4348 9.36364H94.785L101.554 29H97.1053L92.1866 13.8509H92.0332L87.1049 29ZM86.8269 21.2816H97.3354V24.5224H86.8269V21.2816ZM103.841 34.5227V14.2727H107.868V16.7464H108.05C108.229 16.3501 108.488 15.9474 108.827 15.5384C109.172 15.1229 109.619 14.7777 110.169 14.5028C110.725 14.2216 111.415 14.081 112.24 14.081C113.314 14.081 114.305 14.3622 115.212 14.9247C116.12 15.4808 116.846 16.3214 117.389 17.4464C117.932 18.565 118.204 19.968 118.204 21.6555C118.204 23.2983 117.939 24.6854 117.408 25.8168C116.884 26.9418 116.168 27.7951 115.26 28.3768C114.359 28.9521 113.349 29.2397 112.23 29.2397C111.438 29.2397 110.763 29.1087 110.207 28.8466C109.658 28.5845 109.207 28.2553 108.855 27.859C108.504 27.4563 108.235 27.0504 108.05 26.6413H107.925V34.5227H103.841ZM107.839 21.6364C107.839 22.5121 107.961 23.2759 108.203 23.9279C108.446 24.5799 108.798 25.0881 109.258 25.4524C109.718 25.8104 110.278 25.9893 110.936 25.9893C111.601 25.9893 112.163 25.8072 112.624 25.4428C113.084 25.0721 113.432 24.5607 113.669 23.9087C113.912 23.2504 114.033 22.4929 114.033 21.6364C114.033 20.7862 113.915 20.0384 113.678 19.3928C113.442 18.7472 113.093 18.2422 112.633 17.8778C112.173 17.5135 111.607 17.3313 110.936 17.3313C110.271 17.3313 109.709 17.5071 109.249 17.8587C108.795 18.2102 108.446 18.7088 108.203 19.3544C107.961 20 107.839 20.7607 107.839 21.6364ZM120.927 34.5227V14.2727H124.954V16.7464H125.136C125.315 16.3501 125.574 15.9474 125.913 15.5384C126.258 15.1229 126.705 14.7777 127.255 14.5028C127.811 14.2216 128.501 14.081 129.326 14.081C130.4 14.081 131.391 14.3622 132.298 14.9247C133.206 15.4808 133.931 16.3214 134.475 17.4464C135.018 18.565 135.29 19.968 135.29 21.6555C135.29 23.2983 135.025 24.6854 134.494 25.8168C133.97 26.9418 133.254 27.7951 132.346 28.3768C131.445 28.9521 130.435 29.2397 129.316 29.2397C128.524 29.2397 127.849 29.1087 127.293 28.8466C126.744 28.5845 126.293 28.2553 125.941 27.859C125.59 27.4563 125.321 27.0504 125.136 26.6413H125.011V34.5227H120.927ZM124.925 21.6364C124.925 22.5121 125.047 23.2759 125.289 23.9279C125.532 24.5799 125.884 25.0881 126.344 25.4524C126.804 25.8104 127.364 25.9893 128.022 25.9893C128.687 25.9893 129.249 25.8072 129.71 25.4428C130.17 25.0721 130.518 24.5607 130.755 23.9087C130.998 23.2504 131.119 22.4929 131.119 21.6364C131.119 20.7862 131.001 20.0384 130.764 19.3928C130.528 18.7472 130.179 18.2422 129.719 17.8778C129.259 17.5135 128.693 17.3313 128.022 17.3313C127.357 17.3313 126.795 17.5071 126.335 17.8587C125.881 18.2102 125.532 18.7088 125.289 19.3544C125.047 20 124.925 20.7607 124.925 21.6364Z" fill="white"/>
<g clip-path="url(#clip0_135_90)">
<circle cx="19" cy="19" r="33" fill="#874EDC"/>
<g filter="url(#filter0_d_135_90)">
<path fill-rule="evenodd" clip-rule="evenodd" d="M19 0C29.4934 0 38 8.50658 38 19C38 29.4934 29.4934 38 19 38C8.50658 38 0 29.4934 0 19C0 8.50658 8.50658 0 19 0ZM14.6256 16.7441C14.2317 16.7443 13.8467 16.8613 13.5193 17.0803C13.1919 17.2993 12.9367 17.6105 12.7861 17.9744C12.6355 18.3384 12.5962 18.7389 12.6732 19.1252C12.7501 19.5115 12.9399 19.8663 13.2185 20.1448C13.4971 20.4233 13.852 20.6129 14.2384 20.6897C14.6247 20.7665 15.0251 20.727 15.3891 20.5762C15.753 20.4254 16.064 20.1702 16.2829 19.8426C16.5017 19.5151 16.6185 19.1301 16.6185 18.7362C16.6182 18.2078 16.4081 17.7012 16.0344 17.3277C15.6607 16.9541 15.154 16.7443 14.6256 16.7441ZM14.6256 19.9875C14.8732 19.9876 15.1153 19.9143 15.3212 19.7769C15.5271 19.6395 15.6876 19.444 15.7825 19.2153C15.8773 18.9866 15.9022 18.735 15.8539 18.4921C15.8057 18.2493 15.6866 18.0262 15.5115 17.8511C15.3365 17.676 15.1135 17.5568 14.8707 17.5085C14.6279 17.4601 14.3762 17.4849 14.1474 17.5796C13.9187 17.6744 13.7232 17.8348 13.5857 18.0407C13.4482 18.2466 13.3748 18.4886 13.3748 18.7362C13.3751 19.0679 13.5069 19.3859 13.7414 19.6205C13.9759 19.8551 14.2939 19.9871 14.6256 19.9875ZM23.3744 16.7441C22.9804 16.7439 22.5952 16.8605 22.2675 17.0793C21.9398 17.298 21.6843 17.609 21.5333 17.9729C21.3824 18.3369 21.3428 18.7374 21.4195 19.1239C21.4962 19.5103 21.6858 19.8653 21.9643 20.144C22.2429 20.4227 22.5978 20.6125 22.9842 20.6895C23.3706 20.7665 23.7711 20.7271 24.1352 20.5764C24.4992 20.4257 24.8104 20.1704 25.0293 19.8429C25.2482 19.5153 25.3651 19.1302 25.3651 18.7362C25.3643 18.2083 25.1543 17.7023 24.7812 17.329C24.4081 16.9556 23.9022 16.7453 23.3744 16.7441ZM23.3744 19.9875C23.622 19.9876 23.864 19.9144 24.0699 19.7769C24.2759 19.6395 24.4364 19.4441 24.5313 19.2154C24.6261 18.9867 24.651 18.735 24.6028 18.4922C24.5546 18.2493 24.4354 18.0263 24.2604 17.8512C24.0854 17.6761 23.8623 17.5568 23.6195 17.5085C23.3767 17.4601 23.125 17.4849 22.8963 17.5796C22.6675 17.6744 22.472 17.8348 22.3345 18.0407C22.197 18.2465 22.1236 18.4886 22.1236 18.7362C22.1239 19.0678 22.2558 19.3859 22.4902 19.6205C22.7247 19.8551 23.0427 19.987 23.3744 19.9875ZM21.8137 23.1191C21.7886 23.0775 21.7555 23.0411 21.7163 23.0123C21.6772 22.9834 21.6327 22.9625 21.5854 22.9509C21.5382 22.9392 21.4891 22.937 21.441 22.9444C21.3929 22.9517 21.3467 22.9685 21.3051 22.9937C20.6101 23.4153 19.8128 23.6382 19 23.6382C18.1872 23.6382 17.3899 23.4153 16.6949 22.9937C16.6109 22.9428 16.5101 22.9273 16.4147 22.9507C16.3192 22.9741 16.237 23.0344 16.1861 23.1184C16.1351 23.2024 16.1196 23.3032 16.143 23.3986C16.1664 23.4941 16.2267 23.5763 16.3108 23.6272C17.1217 24.1188 18.0518 24.3787 19 24.3787C19.9482 24.3787 20.8783 24.1188 21.6892 23.6272C21.7309 23.6021 21.7671 23.5691 21.7959 23.5299C21.8247 23.4907 21.8455 23.4463 21.8571 23.3991C21.8686 23.3518 21.8708 23.3028 21.8633 23.2548C21.8559 23.2067 21.839 23.1606 21.8137 23.1191ZM8.38672 24.6391H9.05254V15.8176H8.38672C8.25607 15.8175 8.1307 15.8692 8.03818 15.9614C7.94567 16.0537 7.89358 16.1789 7.89339 16.3096V24.1471C7.89358 24.2777 7.94566 24.403 8.03818 24.4952C8.13069 24.5875 8.25606 24.6392 8.38672 24.6391ZM28.2072 26.0211V14.4355C28.2068 14.1955 28.1112 13.9654 27.9414 13.7958C27.7715 13.6262 27.5413 13.5309 27.3013 13.5308H10.6986C10.4586 13.5309 10.2284 13.6262 10.0586 13.7958C9.88873 13.9654 9.79315 14.1955 9.79279 14.4355V26.0211C9.79315 26.2611 9.88873 26.4912 10.0586 26.6608C10.2284 26.8305 10.4586 26.9258 10.6986 26.9258H13.0321C13.0807 26.9258 13.1288 26.9353 13.1737 26.9539C13.2185 26.9726 13.2593 26.9998 13.2935 27.0342C13.3278 27.0686 13.355 27.1095 13.3734 27.1544C13.3918 27.1993 13.4012 27.2475 13.401 27.296V30.1328L18.8709 26.9755C18.9274 26.943 18.9914 26.926 19.0565 26.926H27.3013C27.5413 26.9259 27.7716 26.8306 27.9414 26.661C28.1113 26.4914 28.2069 26.2613 28.2072 26.0212V26.0211ZM30.1063 24.147V16.3096C30.1061 16.179 30.0541 16.0538 29.9616 15.9616C29.8692 15.8693 29.7439 15.8175 29.6133 15.8176H28.9475V24.6391H29.6133C29.7439 24.6392 29.8693 24.5875 29.9618 24.4952C30.0543 24.403 30.1064 24.2778 30.1066 24.1471L30.1063 24.147ZM19.3711 11.1457C19.769 11.0545 20.1194 10.82 20.3554 10.4869C20.5914 10.1538 20.6965 9.74546 20.6506 9.33981C20.6047 8.93417 20.4111 8.55962 20.1066 8.28766C19.8022 8.0157 19.4082 7.86538 19 7.86538C18.5918 7.86538 18.1978 8.0157 17.8934 8.28766C17.5889 8.55962 17.3953 8.93417 17.3494 9.33981C17.3035 9.74546 17.4086 10.1538 17.6446 10.4869C17.8806 10.82 18.231 11.0545 18.6289 11.1457V12.7903H19.3711V11.1457Z" fill="white"/>
</g>
</g>
<defs>
<filter id="filter0_d_135_90" x="-10" y="-6" width="58" height="58" filterUnits="userSpaceOnUse" color-interpolation-filters="sRGB">
<feFlood flood-opacity="0" result="BackgroundImageFix"/>
<feColorMatrix in="SourceAlpha" type="matrix" values="0 0 0 0 0 0 0 0 0 0 0 0 0 0 0 0 0 0 127 0" result="hardAlpha"/>
<feOffset dy="4"/>
<feGaussianBlur stdDeviation="5"/>
<feComposite in2="hardAlpha" operator="out"/>
<feColorMatrix type="matrix" values="0 0 0 0 0.701961 0 0 0 0 0.521569 0 0 0 0 1 0 0 0 0.15 0"/>
<feBlend mode="normal" in2="BackgroundImageFix" result="effect1_dropShadow_135_90"/>
<feBlend mode="normal" in="SourceGraphic" in2="effect1_dropShadow_135_90" result="shape"/>
</filter>
<clipPath id="clip0_135_90">
<rect width="38" height="38" rx="19" fill="white"/>
</clipPath>
</defs>
</svg>
