<svg width="23" height="23" viewBox="0 0 23 23" fill="none" xmlns="http://www.w3.org/2000/svg">
<path d="M21.88 9.44364C22.5172 8.82153 22.1545 7.73542 21.2726 7.62494L15.3651 6.88493C14.9946 6.83853 14.6759 6.59981 14.5259 6.25651L12.0713 0.636602C11.7006 -0.212166 10.5016 -0.212211 10.1308 0.636528L7.67558 6.25659C7.52563 6.59984 7.20688 6.83853 6.8365 6.88493L0.929617 7.62492C0.0477235 7.7354 -0.314995 8.82151 0.322241 9.44362L4.75969 13.7758C5.01465 14.0247 5.12827 14.3854 5.06223 14.7363L3.8949 20.9378C3.72583 21.836 4.6889 22.5161 5.47337 22.0524L10.5637 19.0438C10.8954 18.8477 11.3069 18.8477 11.6385 19.0438L16.7289 22.0524C17.5134 22.5161 18.4764 21.836 18.3074 20.9378L17.14 14.7363C17.074 14.3854 17.1876 14.0247 17.4426 13.7758L21.88 9.44364Z" fill="url(#paint0_linear_149_387)"/>
<defs>
<linearGradient id="paint0_linear_149_387" x1="11.1011" y1="22.2022" x2="11.1011" y2="0" gradientUnits="userSpaceOnUse">
<stop stop-color="#FD5900"/>
<stop offset="1" stop-color="#FFDE00"/>
</linearGradient>
</defs>
</svg>
